<svg width="2165" height="2165" viewBox="0 0 2165 2165" fill="none" xmlns="http://www.w3.org/2000/svg">
<circle cx="1082.5" cy="1082.5" r="1082.5" fill="#40E0D0"/>
<circle cx="1752" cy="413" r="413" fill="white"/>
<mask id="mask0_691_1003" style="mask-type:alpha" maskUnits="userSpaceOnUse" x="0" y="0" width="2165" height="2165">
<circle cx="1082.5" cy="1082.5" r="1082.5" fill="#40E0D0"/>
</mask>
<g mask="url(#mask0_691_1003)">
<path d="M958.758 754.017C857.47 855.909 784.614 934.105 777.506 948.322C752.629 998.083 744.928 1038.37 747.89 1104.71C751.444 1175.21 767.437 1226.15 800.607 1274.73L819.561 1301.98L559.531 1562.04L290.5 1831.1L309.5 1853.5L331.5 1874.5L353 1897L376.387 1917L645.418 1647.94L905.448 1387.88L946.911 1409.2C1001.41 1437.64 1047.01 1449.49 1108.02 1449.49C1166.66 1449.49 1222.34 1434.68 1262.03 1408.02C1276.84 1397.95 1361.54 1317.38 1450.39 1228.52L1611.5 1066.8L1573 1028.3L1534.5 990.382L1372.79 1150.92C1224.71 1297.83 1209.31 1312.05 1179.7 1321.53C1045.83 1364.77 875.832 1240.37 866.355 1091.09C864.578 1059.69 866.355 1038.96 874.055 1015.85C883.532 986.828 898.341 970.241 1045.24 822.142L1205.76 661.011L1167.26 622.505L1128.76 584L958.758 754.017Z" fill="white"/>
</g>
</svg>
